<?xml version="1.0" standalone="no"?>
<!DOCTYPE svg PUBLIC "-//W3C//DTD SVG 20010904//EN"
 "http://www.w3.org/TR/2001/REC-SVG-20010904/DTD/svg10.dtd">
<svg version="1.0" xmlns="http://www.w3.org/2000/svg"
 width="433.000000pt" height="577.000000pt" viewBox="0 0 433.000000 577.000000"
 preserveAspectRatio="xMidYMid meet">

<g transform="translate(0.000000,577.000000) scale(0.100000,-0.100000)"
fill="#000000" stroke="none">
<path d="M2026 5233 c-32 -8 -250 -125 -275 -147 -13 -11 -48 -56 -78 -98 -42
-60 -60 -78 -79 -78 -35 0 -149 -49 -189 -82 -29 -24 -35 -36 -35 -68 0 -32 7
-46 46 -84 25 -25 74 -65 110 -88 35 -23 76 -61 91 -83 23 -33 28 -37 31 -20
8 48 25 85 38 85 8 0 14 -5 14 -11 0 -5 -4 -8 -8 -5 -4 2 -7 -8 -6 -22 0 -15
-2 -29 -7 -32 -4 -3 -11 -18 -14 -33 -7 -25 -5 -27 21 -23 64 7 97 20 101 38
6 19 28 24 38 8 3 -5 -2 -10 -12 -11 -11 0 -13 -3 -5 -6 22 -9 2 -23 -34 -23
-19 0 -34 -5 -34 -10 0 -20 28 -21 66 -4 22 10 44 20 49 22 6 3 -2 -8 -17 -23
-16 -15 -28 -35 -28 -45 0 -12 7 -16 28 -12 23 3 30 12 46 65 14 44 16 62 8
65 -18 6 -15 59 4 66 9 3 31 6 49 6 27 0 34 -4 37 -22 2 -15 10 -23 23 -24 39
-2 45 -4 45 -18 0 -7 9 -25 21 -40 15 -19 29 -26 57 -26 33 0 34 1 17 14 -19
13 -17 15 20 22 22 4 55 8 73 8 38 0 41 8 7 26 -13 7 -22 17 -19 21 3 5 -10 7
-28 4 l-33 -5 35 11 c34 11 34 11 11 20 -13 5 -34 10 -46 11 -13 1 -28 10 -34
20 -10 15 -5 17 57 16 37 -1 74 -5 82 -9 66 -34 136 -60 151 -56 11 3 19 1 19
-5 0 -5 4 -7 9 -3 5 3 12 -4 16 -15 3 -11 11 -20 16 -20 5 0 9 -10 9 -22 0
-19 2 -20 10 -8 9 13 12 12 21 -4 9 -15 13 -16 20 -5 6 11 13 9 33 -10 34 -32
83 -22 101 22 18 46 38 191 32 236 -15 111 -116 288 -237 412 -36 37 -54 44
-160 68 -52 11 -111 25 -130 31 -35 10 -119 12 -154 3z m-26 -53 c6 -11 7 -20
2 -20 -6 0 -12 9 -15 20 -3 11 -3 20 -1 20 2 0 8 -9 14 -20z m180 -30 c25 16
47 12 24 -4 -10 -8 -16 -18 -11 -22 4 -4 7 -2 7 4 0 6 6 9 14 6 8 -3 17 0 21
5 7 12 25 6 25 -8 0 -15 -72 -19 -77 -4 -3 9 -10 10 -22 4 -13 -7 -17 -5 -17
9 0 12 4 16 11 10 6 -5 17 -5 25 0z m-270 -8 c0 -4 -10 -16 -21 -26 -15 -13
-24 -15 -32 -7 -8 8 -5 15 9 26 21 16 44 20 44 7z m117 -8 c-3 -3 -12 -4 -19
-1 -8 3 -5 6 6 6 11 1 17 -2 13 -5z m1 -58 c26 15 26 15 -3 -10 -16 -14 -33
-26 -37 -26 -5 0 -8 19 -7 43 l1 42 9 -33 c10 -32 10 -32 37 -16z m-78 -32 c0
-9 -6 -14 -12 -11 -7 2 -19 -3 -26 -12 -7 -9 -6 -2 4 16 18 32 34 35 34 7z
m-88 -28 c5 4 2 -5 -7 -20 -10 -14 -18 -26 -19 -26 -3 0 2 83 5 90 1 3 4 -7 6
-23 3 -15 9 -25 15 -21z m19 21 c-10 -9 -11 -8 -5 6 3 10 9 15 12 12 3 -3 0
-11 -7 -18z m154 -37 c-31 -42 -34 -51 -20 -56 9 -4 25 2 37 12 21 19 21 19 7
-3 -11 -19 -22 -22 -54 -20 l-41 2 38 40 c21 21 38 44 38 50 0 13 22 37 28 30
2 -2 -12 -27 -33 -55z m-90 -18 c-2 -9 -4 -20 -4 -24 -1 -5 -5 -8 -9 -8 -5 0
-7 13 -4 30 2 16 8 28 12 25 5 -3 7 -13 5 -23z m159 -7 c-9 -14 -18 -25 -21
-25 -5 0 5 18 20 38 17 22 18 13 1 -13z m-14 -50 c10 -12 10 -15 -4 -15 -9 0
-16 7 -16 15 0 8 2 15 4 15 2 0 9 -7 16 -15z m120 -415 c0 -5 -4 -10 -10 -10
-5 0 -10 5 -10 10 0 6 5 10 10 10 6 0 10 -4 10 -10z"/>
<path d="M2487 4440 c8 -29 25 -37 21 -9 -1 12 -8 24 -15 26 -7 3 -9 -3 -6
-17z"/>
<path d="M2695 4427 c11 -18 12 -31 5 -57 -5 -18 -8 -36 -5 -38 2 -3 -2 -14
-10 -26 -8 -11 -15 -25 -15 -31 0 -5 9 3 19 19 11 16 17 35 14 42 -3 8 0 14 6
14 12 0 14 41 5 78 -4 12 -13 22 -20 22 -12 0 -12 -4 1 -23z"/>
<path d="M1645 4419 c-4 -6 -5 -12 -2 -15 2 -3 7 2 10 11 7 17 1 20 -8 4z"/>
<path d="M2587 4373 c-12 -11 -8 -23 7 -23 8 0 16 -5 18 -12 3 -8 6 -9 11 -1
8 12 -26 46 -36 36z"/>
<path d="M1814 4277 c-3 -9 -1 -24 5 -35 8 -16 5 -24 -15 -43 -14 -13 -32 -36
-40 -51 -18 -34 -19 -98 -1 -99 6 0 3 -4 -8 -9 -15 -6 -25 -2 -42 18 -13 14
-23 33 -23 43 0 10 -5 21 -10 24 -17 10 -1 -42 37 -122 24 -50 50 -86 85 -118
35 -31 53 -56 59 -82 16 -72 12 -88 -42 -144 -27 -30 -68 -77 -90 -105 -34
-44 -106 -104 -124 -104 -13 0 -277 -152 -336 -193 -151 -106 -180 -168 -209
-456 -11 -106 -47 -388 -65 -496 -7 -49 -20 -133 -29 -185 -8 -52 -22 -138
-31 -190 -10 -52 -19 -111 -22 -130 -3 -19 -13 -84 -24 -144 -10 -60 -19 -133
-19 -162 0 -29 -6 -85 -14 -126 -16 -87 -20 -260 -7 -306 6 -21 6 -42 1 -55
-10 -24 -33 -564 -31 -714 1 -61 -3 -108 -14 -138 -8 -25 -15 -70 -15 -100 l0
-55 339 0 339 0 7 30 c4 16 11 30 16 30 14 0 10 33 -7 58 -28 41 -1 161 49
221 24 27 28 40 23 67 -5 22 -2 35 7 41 8 4 16 17 19 28 3 11 9 28 13 37 5 13
2 15 -14 11 -18 -5 -21 -1 -21 26 0 18 -4 30 -9 27 -10 -6 2 66 19 108 12 33
3 147 -10 125 -5 -7 -6 -18 -3 -26 3 -7 0 -13 -6 -13 -12 0 -10 77 3 98 3 6 2
13 -4 17 -7 4 -7 13 1 26 6 11 8 27 5 34 -2 7 -2 16 2 19 7 7 9 23 17 126 5
78 13 157 20 200 4 28 12 98 20 175 13 135 16 162 20 185 12 72 18 113 28 190
11 76 14 85 33 84 11 0 21 5 21 10 1 25 22 119 39 179 8 26 70 24 77 -3 6 -24
31 -35 55 -25 9 4 28 8 42 8 20 0 21 1 4 4 -24 5 -47 64 -36 91 5 12 9 7 13
-18 5 -26 7 -16 8 38 1 62 3 72 19 71 36 -1 54 -16 77 -64 18 -38 23 -43 18
-20 -3 17 -13 44 -22 60 -14 25 -23 30 -56 30 -33 0 -40 -4 -46 -25 -4 -15 -7
-18 -8 -8 -1 10 -10 22 -20 28 -41 21 -60 12 -108 -55 -26 -35 -49 -62 -51
-60 -2 2 16 35 42 72 l46 68 -39 3 -38 3 8 37 c5 20 12 55 16 77 l7 40 6 -50
c4 -39 10 -52 29 -61 29 -15 45 -10 66 22 15 23 15 24 -14 24 -34 0 -41 13
-41 81 0 42 -3 49 -20 49 -15 0 -20 -7 -21 -27 -1 -16 -5 -6 -9 22 -9 63 -1
116 19 133 14 11 14 11 -1 6 -14 -5 -18 -1 -18 15 0 48 -31 430 -39 479 -10
62 8 138 43 187 11 16 31 50 43 75 14 29 22 38 22 25 1 -11 -3 -26 -8 -34 -12
-19 33 -67 76 -82 45 -14 49 -8 12 16 -16 11 -29 26 -29 34 0 8 9 2 21 -13 11
-14 26 -26 32 -26 6 0 1 7 -11 16 -25 17 -28 50 -7 79 15 19 15 19 30 -2 8
-11 24 -23 35 -26 28 -7 27 31 -1 68 -12 15 -23 37 -24 48 -2 12 -6 34 -10 50
-5 20 -4 27 7 27 15 0 46 -28 47 -43 2 -20 54 -109 67 -114 20 -7 105 17 98
29 -3 5 -14 6 -24 3 -33 -10 -87 20 -93 51 -3 16 -1 31 5 33 6 2 19 12 29 22
16 16 17 22 6 46 -6 15 -20 35 -29 45 -19 19 -14 57 8 59 8 1 19 3 24 4 6 1
22 3 38 4 21 1 24 3 12 11 -13 9 -13 12 3 24 9 7 35 16 56 20 49 7 117 46 173
96 l43 40 -40 -1 c-22 -1 -76 -14 -120 -29 -44 -15 -111 -34 -150 -43 -77 -17
-200 -16 -218 2 -6 6 -16 11 -22 11 -7 0 -20 9 -30 20 -10 11 -22 17 -28 13
-6 -3 -7 -1 -3 5 4 6 1 30 -5 52 -14 45 -6 63 15 34 12 -15 30 -19 96 -22 51
-3 86 0 93 7 8 8 -5 11 -50 11 -54 0 -123 15 -123 27 0 13 22 43 29 39 4 -3 8
1 8 8 0 8 -6 12 -14 9 -7 -3 -13 2 -13 11 0 14 18 21 43 17 20 -3 3 18 -19 23
-15 4 -33 13 -40 21 -12 11 -9 14 16 20 16 4 34 4 40 0 16 -10 12 11 -6 26 -8
7 -22 25 -30 41 -13 25 -13 28 2 28 8 0 14 6 12 13 -7 18 -37 21 -44 4z m-634
-1347 c0 -5 -2 -10 -4 -10 -3 0 -8 5 -11 10 -3 6 -1 10 4 10 6 0 11 -4 11 -10z
m537 -587 c-3 -10 -5 -2 -5 17 0 19 2 27 5 18 2 -10 2 -26 0 -35z m-97 -7 c0
-2 -8 -10 -17 -17 -16 -13 -17 -12 -4 4 13 16 21 21 21 13z m-3 -42 c-3 -3
-12 -4 -19 -1 -8 3 -5 6 6 6 11 1 17 -2 13 -5z m260 -26 c19 -24 23 -64 9 -84
-12 -16 -12 -21 0 -38 21 -30 17 -46 -11 -46 -14 0 -25 4 -25 9 0 18 -32 41
-56 41 -38 0 -28 25 14 36 43 11 54 47 15 52 -13 2 -23 8 -23 13 0 10 35 27
56 28 6 1 16 -5 21 -11z m-137 -32 c0 -8 -4 -18 -10 -21 -5 -3 -10 3 -10 14 0
12 5 21 10 21 6 0 10 -6 10 -14z m98 -23 c2 -9 -7 -13 -27 -13 -30 0 -39 9
-24 24 11 10 46 3 51 -11z m-188 -7 c0 -3 -4 -8 -10 -11 -5 -3 -10 -1 -10 4 0
6 5 11 10 11 6 0 10 -2 10 -4z m37 -98 c-3 -7 -5 -2 -5 12 0 14 2 19 5 13 2
-7 2 -19 0 -25z m-63 -149 c-6 -11 -24 -2 -24 11 0 5 7 7 15 4 8 -4 12 -10 9
-15z m-563 -1712 c-10 -9 -11 -8 -5 6 3 10 9 15 12 12 3 -3 0 -11 -7 -18z
m-21 -175 c0 -15 -2 -15 -10 -2 -13 20 -13 33 0 25 6 -3 10 -14 10 -23z"/>
<path d="M1945 4281 c-7 -13 17 -24 40 -19 9 1 16 8 16 13 0 14 -48 19 -56 6z"/>
<path d="M2536 4248 c7 -12 44 -10 44 2 0 5 -11 9 -24 8 -14 -1 -22 -6 -20
-10z"/>
<path d="M2622 4225 c-7 -8 -9 -15 -4 -15 5 0 15 7 22 15 16 19 -1 19 -18 0z"/>
<path d="M2540 4200 c0 -5 5 -10 10 -10 6 0 10 5 10 10 0 6 -4 10 -10 10 -5 0
-10 -4 -10 -10z"/>
<path d="M2500 4165 c0 -16 29 -34 46 -28 7 2 10 12 7 21 -5 22 -53 28 -53 7z"/>
<path d="M2120 4132 c0 -9 -14 -12 -68 -13 -34 -1 -57 -19 -23 -19 11 0 23 -4
26 -10 3 -5 12 -10 18 -10 7 0 6 4 -3 10 -8 5 -10 10 -5 10 6 -1 19 -7 29 -15
31 -24 66 -19 66 8 0 23 -17 47 -32 47 -4 0 -8 -4 -8 -8z"/>
<path d="M1948 4113 c12 -2 30 -2 40 0 9 3 -1 5 -23 4 -22 0 -30 -2 -17 -4z"/>
<path d="M2481 3818 c2 -91 -11 -138 -55 -208 -19 -30 -40 -66 -47 -80 -6 -14
-15 -32 -19 -40 -4 -9 -1 -25 8 -38 9 -14 13 -35 9 -57 -5 -29 -3 -33 11 -28
9 3 23 11 31 17 11 8 13 8 7 -1 -4 -7 -3 -13 2 -13 6 0 13 8 16 17 5 11 10 13
17 6 18 -18 -3 -205 -25 -233 -7 -8 -27 -48 -45 -89 -18 -41 -48 -98 -66 -127
-19 -30 -32 -54 -30 -54 3 0 -4 -19 -16 -42 -32 -63 -62 -179 -74 -293 -1 -11
-4 -22 -5 -25 -1 -3 -1 -15 -1 -26 2 -18 -2 -21 -26 -18 l-28 4 28 -11 c27
-11 33 -31 21 -63 -5 -13 -16 -15 -55 -10 -48 6 -49 6 -49 -20 0 -32 -6 -33
-31 -3 -10 12 -18 17 -19 11 0 -14 38 -49 46 -42 8 8 87 -17 92 -30 2 -7 -16
-9 -55 -7 l-58 4 47 -8 c59 -11 65 -15 70 -45 5 -24 4 -24 -16 -11 -21 15 -86
21 -86 8 0 -5 16 -8 35 -9 23 0 43 -8 56 -22 l20 -22 -21 -22 c-11 -12 -20
-25 -20 -30 0 -4 -18 -20 -40 -34 -46 -30 -42 -43 14 -47 36 -2 40 1 52 33 11
30 13 -2 15 -235 1 -148 3 -295 4 -325 1 -30 3 -243 4 -472 1 -388 2 -417 19
-421 13 -4 13 -5 2 -6 -14 -1 -16 -33 -15 -253 1 -139 2 -286 3 -325 l2 -73
392 0 c350 0 394 2 410 17 10 9 18 23 18 32 1 14 2 14 13 1 20 -26 91 -52 132
-48 28 2 42 10 52 28 14 23 14 24 -1 6 -9 -11 -16 -14 -16 -7 0 7 -5 9 -10 6
-6 -4 -7 -11 -4 -17 4 -7 2 -8 -5 -4 -6 4 -9 11 -6 16 3 5 1 11 -5 15 -5 3
-10 2 -10 -4 0 -5 -12 1 -26 14 -17 16 -31 22 -38 16 -6 -5 -21 -5 -35 0 -24
9 -24 10 -5 23 23 16 80 14 77 -2 -4 -14 3 -15 44 -3 24 7 33 6 37 -5 3 -8 16
-13 28 -13 l23 2 -22 4 c-32 6 -29 19 5 19 55 0 67 -37 25 -73 -24 -20 -25
-23 -8 -21 12 2 37 29 62 68 23 36 46 70 50 75 63 76 203 311 203 339 0 8 134
281 175 356 l35 65 -3 411 c-2 325 -6 415 -16 428 -8 10 -9 16 -3 16 10 0 7
56 -5 90 -3 8 -7 29 -8 45 -6 68 -21 151 -29 164 -5 7 -10 32 -11 55 -2 22 -8
66 -15 96 -16 80 -29 157 -36 220 -3 30 -9 57 -13 60 -3 3 -6 30 -7 60 0 30
-4 75 -8 100 -4 25 -9 54 -10 65 -2 11 -7 45 -11 75 -5 30 -8 61 -6 68 2 14
-21 72 -29 72 -3 0 -5 18 -5 39 -1 22 3 37 7 35 11 -7 10 1 -3 30 -7 14 -15
24 -18 22 -3 -2 -7 6 -7 17 -3 44 -37 127 -53 127 -4 0 -34 26 -67 58 -61 57
-143 119 -212 158 -20 12 -66 38 -102 59 -79 45 -184 95 -311 149 -91 39 -100
45 -188 141 -84 90 -122 124 -143 125 -4 0 -7 -33 -7 -72z m120 -331 c-10 -9
-11 -8 -5 6 3 10 9 15 12 12 3 -3 0 -11 -7 -18z m73 -170 c-8 -21 -24 -22 -24
-2 0 8 5 15 11 15 5 0 7 6 3 13 -5 9 -4 9 5 1 6 -6 9 -18 5 -27z m-10 -49 c-3
-13 -6 -27 -7 -33 -5 -23 -19 -34 -34 -28 -10 4 -14 2 -9 -5 3 -6 1 -14 -5
-18 -8 -4 -7 -9 2 -16 11 -7 9 -8 -5 -4 -14 5 -17 2 -12 -11 4 -10 4 -14 0
-11 -3 4 -18 -15 -31 -43 -14 -28 -27 -49 -28 -47 -8 7 8 57 16 52 6 -3 8 6 5
20 -3 16 1 29 9 33 7 5 14 13 14 18 1 6 7 10 14 10 6 1 10 7 8 15 -7 31 -6 55
4 62 19 14 28 8 14 -9 -12 -15 -12 -16 1 -8 8 5 21 17 28 27 17 24 22 23 16
-4z m709 -76 c-15 -15 -49 -52 -74 -80 -29 -33 -49 -48 -51 -40 -3 7 -13 -2
-23 -22 -11 -21 -20 -30 -23 -21 -3 9 -6 10 -12 2 -3 -7 -14 -9 -23 -6 -13 6
-13 9 5 27 11 11 26 17 35 14 10 -4 44 24 101 83 48 49 88 85 90 81 2 -5 -9
-22 -25 -38z m-100 -38 c-49 -70 -67 -84 -86 -64 -9 10 -9 11 0 6 7 -4 21 10
36 35 15 25 27 36 30 27 3 -9 7 -7 12 7 6 16 42 54 52 55 1 0 -18 -30 -44 -66z
m197 16 c-6 -12 -9 -29 -5 -38 3 -9 3 -13 -1 -9 -4 4 -13 -1 -20 -11 -11 -14
-13 -14 -14 -2 0 9 -6 5 -14 -10 -8 -14 -12 -29 -9 -33 3 -5 -4 -6 -16 -2 -15
5 -21 2 -21 -10 0 -9 4 -13 10 -10 5 3 7 0 4 -9 -3 -9 -12 -12 -21 -9 -10 4
-14 2 -10 -4 3 -5 -4 -9 -16 -9 -16 1 -21 -4 -19 -16 2 -11 -3 -18 -12 -18 -8
0 -19 -8 -25 -17 -5 -10 -12 -15 -16 -11 -4 3 3 16 14 27 12 12 21 23 21 25 0
3 12 18 28 34 15 17 54 60 86 96 59 65 78 77 56 36z m15 -18 c-15 -16 -16 -15
-4 12 7 15 15 23 17 16 3 -7 -3 -19 -13 -28z m25 -47 c0 -5 -11 -18 -55 -72
-11 -13 -42 -52 -70 -87 -27 -36 -59 -69 -70 -75 -14 -7 -15 -10 -5 -10 11 -1
16 -16 18 -57 3 -49 1 -54 -11 -42 -11 9 -12 15 -3 21 6 5 0 7 -16 4 -16 -2
-28 0 -28 4 0 5 9 9 20 9 11 0 20 5 20 10 0 6 -9 10 -20 10 -36 0 -22 34 35
84 30 26 55 52 55 58 0 18 106 148 121 148 5 0 9 -2 9 -5z m28 -123 c-2 -22
-9 -36 -18 -38 -8 -1 -46 -14 -85 -28 l-70 -27 35 30 c19 17 38 30 43 31 4 0
7 5 7 12 0 7 14 27 32 45 38 40 61 30 56 -25z m-368 23 c11 -13 8 -15 -15 -15
-23 0 -26 2 -15 15 7 8 14 15 15 15 1 0 8 -7 15 -15z m-55 -45 c3 -5 1 -10 -4
-10 -6 0 -11 5 -11 10 0 6 2 10 4 10 3 0 8 -4 11 -10z m142 -43 c-12 -13 -24
-22 -26 -20 -6 4 30 43 40 43 5 0 -2 -10 -14 -23z m-752 -7 c-10 -11 -21 -17
-24 -14 -3 4 0 9 7 11 6 3 10 9 6 14 -3 5 3 9 12 9 16 0 16 -2 -1 -20z m622
-22 c-3 -8 -6 -5 -6 6 -1 11 2 17 5 13 3 -3 4 -12 1 -19z m383 13 c0 -5 6 -9
13 -8 34 1 47 -5 47 -20 0 -15 -2 -16 -10 -3 -9 13 -10 13 -10 0 0 -8 -16 -23
-35 -32 -31 -16 -33 -16 -28 -1 5 13 2 15 -13 9 -31 -12 -104 -24 -104 -17 0
3 -4 -1 -10 -9 -8 -12 -10 -12 -16 3 -9 25 42 67 84 68 44 2 49 3 58 12 10 10
24 9 24 -2z m-341 -161 c0 -18 -28 53 -33 85 -5 32 -3 28 14 -20 11 -33 20
-62 19 -65z m91 96 c0 -2 -11 -11 -25 -20 -14 -9 -25 -13 -25 -8 0 5 10 14 23
20 27 13 27 13 27 8z m321 -52 c1 -11 -72 -34 -125 -38 l-39 -3 24 18 c13 10
20 19 14 19 -5 1 -2 4 7 8 26 10 118 7 119 -4z m-146 -2 c-6 -5 -22 -13 -37
-20 -21 -8 -29 -8 -38 3 -9 11 -6 14 12 18 41 8 72 7 63 -1z m-271 -89 c-10
-56 -22 -65 -64 -45 -25 13 -46 16 -75 11 -43 -7 -50 -6 -41 10 4 5 24 9 46 9
22 0 47 5 56 13 8 7 27 13 41 14 15 0 28 6 31 13 8 26 13 10 6 -25z m361 17
c-6 -18 -3 -20 17 -15 13 3 32 -2 43 -10 17 -13 17 -17 5 -29 -19 -19 -120
-32 -120 -16 0 6 -8 9 -17 6 -10 -3 -31 -7 -46 -10 -48 -8 -26 14 43 43 36 15
64 33 63 39 -2 7 2 12 8 12 6 0 8 -9 4 -20z m-435 0 c0 -5 -4 -10 -10 -10 -5
0 -10 5 -10 10 0 6 5 10 10 10 6 0 10 -4 10 -10z m230 -75 c0 -8 -4 -15 -10
-15 -5 0 -7 7 -4 15 4 8 8 15 10 15 2 0 4 -7 4 -15z m-880 1 c0 -2 -7 -6 -15
-10 -8 -3 -15 -1 -15 4 0 6 7 10 15 10 8 0 15 -2 15 -4z m23 -33 c-7 -2 -19
-2 -25 0 -7 3 -2 5 12 5 14 0 19 -2 13 -5z m668 -6 c-6 -8 -7 -18 -3 -22 4 -5
1 -5 -5 -1 -8 4 -13 1 -13 -8 0 -22 -17 -20 -30 3 -13 25 -13 41 1 18 10 -17
29 -15 29 4 0 6 -5 7 -12 3 -7 -4 -8 -3 -4 4 4 7 16 12 28 12 16 0 18 -3 9
-13z m199 -6 c0 -5 -10 -11 -22 -14 -22 -6 -22 -6 -4 8 23 17 26 18 26 6z
m110 -1 c0 -5 5 -10 11 -10 5 0 7 5 4 10 -6 10 153 5 163 -4 2 -2 -1 -13 -7
-24 -14 -27 -51 -35 -156 -34 -60 1 -92 -3 -97 -11 -5 -8 -8 -7 -8 5 0 11 17
26 42 39 31 16 38 23 27 30 -11 7 -11 9 4 9 9 0 17 -4 17 -10z m-375 -20 c8
-13 -5 -13 -25 0 -13 8 -13 10 2 10 9 0 20 -4 23 -10z m265 -17 c0 -12 -8 -18
-25 -19 l-25 -2 23 19 c27 23 27 23 27 2z m-966 -18 c-4 -8 -8 -15 -10 -15 -2
0 -4 7 -4 15 0 8 4 15 10 15 5 0 7 -7 4 -15z m781 -5 c-3 -5 -18 -10 -33 -11
l-27 -1 25 -7 c24 -7 24 -7 -9 -14 -22 -5 -39 -3 -49 5 -13 11 -6 15 39 24 30
7 55 12 57 13 2 0 0 -3 -3 -9z m-602 -7 c-7 -2 -19 -2 -25 0 -7 3 -2 5 12 5
14 0 19 -2 13 -5z m110 -10 c-7 -2 -21 -2 -30 0 -10 3 -4 5 12 5 17 0 24 -2
18 -5z m362 -3 c-28 -12 -55 -12 -55 0 0 6 17 10 38 9 30 0 33 -2 17 -9z m320
-25 c1 -28 -10 -33 -19 -10 -3 8 -13 13 -23 10 -10 -3 -8 0 5 6 12 7 22 17 22
22 0 22 14 -5 15 -28z m279 -7 c26 -6 31 -24 11 -32 -9 -3 -55 -6 -103 -7 -48
-1 -105 -7 -127 -14 -39 -13 -39 -13 -16 3 14 9 34 25 45 35 l21 18 -21 -12
c-13 -8 -31 -9 -50 -4 l-29 9 35 6 c39 6 204 5 234 -2z m-496 -49 c2 -21 -1
-39 -7 -39 -5 0 -13 -35 -17 -77 -4 -43 -8 -87 -10 -98 -1 -11 -3 -33 -3 -49
-1 -44 -9 -27 -15 31 -2 29 -7 57 -11 63 -3 5 -1 10 4 10 6 0 11 5 11 11 0 5
-5 7 -11 3 -7 -4 -9 0 -5 14 4 12 2 23 -5 28 -8 5 -10 3 -4 -7 5 -8 5 -11 0
-7 -11 10 -12 68 -1 68 4 0 6 11 4 25 -3 14 -1 25 4 25 5 0 2 8 -8 18 -17 16
-16 17 12 22 49 10 60 2 62 -41z m-121 -10 c-9 -6 -15 -14 -12 -20 4 -5 2 -9
-3 -9 -6 0 -13 7 -16 16 -3 8 -2 12 4 9 6 -3 10 -1 10 4 0 6 8 11 18 11 16 -1
16 -1 -1 -11z m628 -18 c-3 -6 2 -14 10 -19 14 -7 13 -11 -5 -35 -12 -15 -24
-26 -28 -25 -4 0 -32 -3 -62 -7 -30 -5 -59 -8 -65 -6 -34 10 -81 5 -97 -11
-10 -10 -20 -18 -22 -18 -4 0 1 51 6 54 3 2 108 25 153 33 17 2 35 9 42 15 7
5 17 7 23 3 5 -3 17 1 26 9 17 18 28 21 19 7z m-1464 -11 c24 -13 25 -40 2
-40 -38 0 -63 13 -63 31 0 21 29 25 61 9z m248 -79 c7 -5 9 -11 5 -14 -5 -3
-15 1 -22 9 -14 16 -5 18 17 5z m508 -11 c-1 -21 -10 -18 -13 5 -1 8 2 15 6
15 5 0 8 -9 7 -20z m421 -15 c-1 -13 -6 -21 -10 -19 -5 3 -6 10 -3 15 6 8 -8
13 -27 10 -16 -2 -7 18 10 22 25 5 32 -1 30 -28z m-894 -1 c3 -8 2 -12 -4 -9
-6 3 -10 1 -10 -5 0 -6 -4 -8 -10 -5 -6 4 -5 11 3 20 15 18 14 18 21 -1z
m1214 -29 c16 -15 -24 -25 -118 -29 -58 -2 -118 -9 -133 -15 -43 -17 -57 -12
-17 5 l35 16 -35 14 -35 14 55 -3 c30 -2 69 0 85 4 31 8 154 4 163 -6z m-1195
-25 c-4 -14 0 -20 10 -20 9 0 19 -5 23 -11 4 -8 0 -9 -15 -4 -12 4 -21 2 -21
-4 0 -6 7 -11 16 -11 9 0 12 -5 8 -12 -5 -8 -2 -9 12 -4 10 4 15 4 11 0 -4 -4
-1 -14 6 -22 10 -13 9 -14 -3 -7 -13 8 -13 6 -1 -8 7 -9 16 -15 20 -13 3 2 7
-14 8 -36 0 -22 3 -41 6 -44 10 -10 35 9 30 22 -3 8 0 14 7 14 6 0 9 -4 5 -9
-3 -5 -1 -12 5 -16 6 -4 5 -12 -5 -21 -8 -9 -19 -13 -24 -9 -5 3 -13 1 -16 -5
-4 -6 -1 -9 7 -8 8 2 12 -6 11 -22 -1 -14 1 -19 3 -12 7 15 34 16 34 1 0 -6 6
-9 13 -6 8 3 14 -4 15 -19 1 -13 -3 -24 -8 -24 -6 0 -9 5 -7 11 1 6 -5 13 -14
14 -12 2 -15 -4 -12 -24 2 -14 1 -21 -3 -14 -3 7 -15 9 -34 3 -20 -6 -30 -5
-34 3 -2 7 -5 4 -5 -5 -1 -9 7 -22 17 -28 16 -11 16 -11 0 -6 -13 4 -20 -2
-24 -19 -7 -28 3 -48 18 -39 7 4 8 2 4 -4 -3 -6 3 -16 15 -23 19 -10 21 -9 15
6 -5 15 -4 16 8 6 9 -8 16 -9 21 -2 4 7 12 7 25 -1 10 -7 17 -15 14 -19 -2 -4
9 -10 26 -14 17 -4 28 -10 25 -14 -2 -5 7 -6 21 -3 16 3 30 -1 35 -9 6 -10 9
-10 9 -1 0 6 9 12 19 12 11 0 21 3 23 8 5 11 77 46 83 40 3 -3 -11 -13 -30
-24 -31 -17 -42 -31 -50 -68 -1 -6 -7 -24 -13 -39 -15 -36 -15 -57 0 -57 6 0
3 -7 -8 -15 -19 -14 -19 -14 1 -15 11 -1 14 -4 8 -7 -7 -2 -13 -9 -13 -14 0
-6 5 -7 10 -4 6 3 10 -1 10 -11 0 -11 -6 -15 -19 -11 -12 3 -22 -1 -25 -10 -3
-8 -1 -11 4 -8 6 3 10 0 10 -7 0 -10 3 -9 10 2 5 8 11 12 14 9 3 -3 -8 -20
-24 -38 -33 -36 -36 -42 -17 -38 8 1 12 -10 12 -33 0 -19 7 -41 15 -48 13 -11
12 -12 -6 -3 -16 8 -20 17 -16 39 3 24 0 31 -17 37 -11 3 -25 4 -30 0 -5 -3
-12 -1 -16 5 -3 6 4 10 17 11 13 0 17 3 10 6 -17 7 -5 23 18 23 10 0 21 4 25
9 3 6 -4 8 -16 6 -15 -3 -19 0 -15 11 4 9 -3 18 -19 24 -25 9 -35 30 -15 30 6
0 10 -5 10 -11 0 -5 5 -7 10 -4 6 3 10 1 10 -4 0 -26 15 -8 16 19 1 21 -3 30
-15 30 -13 0 -13 -2 -2 -9 7 -5 9 -11 4 -14 -11 -7 -35 6 -35 19 0 5 -4 8 -10
6 -5 -1 -7 2 -3 8 4 6 16 8 28 5 19 -5 20 -5 6 7 -13 10 -14 19 -6 38 15 39
17 54 5 42 -6 -6 -17 -8 -24 -5 -8 3 -14 -1 -14 -8 0 -7 -3 -9 -7 -5 -4 4 3
16 17 28 17 14 19 18 7 14 -10 -3 -16 -2 -13 3 7 11 -14 35 -44 48 -19 8 -28
7 -38 -3 -10 -12 -10 -14 3 -14 8 0 15 -4 15 -10 0 -11 -32 -1 -42 14 -5 7 -8
7 -8 -1 0 -7 -7 -13 -15 -13 -8 0 -15 5 -15 10 0 6 -4 10 -9 10 -5 0 -7 -8 -4
-19 3 -10 0 -22 -6 -25 -6 -4 -11 0 -11 11 0 15 -2 16 -10 3 -6 -9 -10 -10
-10 -3 0 6 5 15 11 19 6 3 9 15 6 25 -3 11 0 19 6 20 7 0 2 4 -10 9 -24 10
-31 34 -12 45 6 5 4 12 -8 21 -17 13 -17 14 2 8 18 -5 17 -3 -4 15 -13 12 -18
21 -12 21 6 0 8 7 5 15 -4 8 -10 12 -15 9 -5 -3 -6 2 -3 10 3 9 1 16 -5 16 -6
0 -11 11 -11 25 0 14 -5 25 -12 25 -6 0 -1 9 12 20 13 11 17 20 10 20 -10 0
-9 4 1 17 12 14 12 16 -2 11 -9 -3 -16 -1 -17 5 0 7 -2 29 -4 50 -3 21 1 46 9
57 11 16 11 19 -5 24 -10 4 -19 14 -19 22 0 14 2 14 11 3 18 -23 46 -23 46 1
0 12 4 19 9 16 5 -3 7 -15 4 -26z m807 -50 c0 -5 -4 -10 -10 -10 -5 0 -10 5
-10 10 0 6 5 10 10 10 6 0 10 -4 10 -10z m347 4 c-3 -3 -12 -4 -19 -1 -8 3 -5
6 6 6 11 1 17 -2 13 -5z m-54 -11 c-7 -2 -19 -2 -25 0 -7 3 -2 5 12 5 14 0 19
-2 13 -5z m111 -11 c14 -22 -8 -52 -44 -62 -35 -9 -67 -8 -185 6 -22 3 -49 5
-60 5 -14 0 -16 2 -7 8 11 6 10 10 -4 15 -9 3 -14 9 -11 12 3 3 16 -1 28 -9
20 -15 28 -15 67 0 9 3 33 7 52 9 19 2 53 7 75 13 52 12 83 13 89 3z m-339
-12 c-3 -5 -14 -10 -23 -9 -14 0 -13 2 3 9 27 11 27 11 20 0z m-1105 -84 c0
-3 -4 -8 -10 -11 -5 -3 -10 -1 -10 4 0 6 5 11 10 11 6 0 10 -2 10 -4z m1109
-20 c10 -12 9 -14 -5 -12 -10 2 -20 8 -22 14 -5 17 13 15 27 -2z m339 5 c17
-10 11 -47 -6 -43 -7 1 -12 -3 -12 -9 0 -7 -14 -9 -39 -5 -21 3 -42 2 -46 -2
-3 -4 -46 -7 -93 -7 -48 -1 -79 1 -69 3 9 2 17 6 17 9 0 3 -8 12 -17 20 -16
13 -15 13 12 8 28 -5 182 19 194 30 7 8 45 5 59 -4z m-328 -111 c-8 -5 -17 -7
-19 -4 -3 3 1 9 9 14 8 5 17 7 19 4 3 -3 -1 -9 -9 -14z m340 10 c28 -15 14
-47 -23 -54 -18 -4 -68 -9 -113 -12 -63 -4 -84 -2 -96 9 -8 8 -23 17 -34 19
-10 3 11 5 48 6 37 0 76 6 87 11 11 6 35 12 53 12 l33 1 -30 8 c-28 7 -27 8
13 9 24 0 52 -3 62 -9z m-1457 -37 c-7 -2 -19 -2 -25 0 -7 3 -2 5 12 5 14 0
19 -2 13 -5z m497 -33 c0 -5 -4 -10 -10 -10 -5 0 -10 5 -10 10 0 6 5 10 10 10
6 0 10 -4 10 -10z m65 -28 c-3 -3 -11 0 -18 7 -9 10 -8 11 6 5 10 -3 15 -9 12
-12z m562 -8 c-3 -3 -12 -4 -19 -1 -8 3 -5 6 6 6 11 1 17 -2 13 -5z m364 -43
c-15 -26 -122 -45 -213 -37 -69 6 -102 15 -62 17 15 1 13 3 -6 9 -15 4 3 6 44
4 61 -4 67 -2 51 9 -16 13 -12 15 36 21 30 3 74 10 99 14 50 9 68 -4 51 -37z
m-341 -11 c0 -5 -6 -10 -14 -10 -8 0 -18 5 -21 10 -3 6 3 10 14 10 12 0 21 -4
21 -10z m30 -30 c0 -5 -7 -7 -15 -4 -8 4 -15 1 -15 -7 0 -7 -3 -10 -6 -6 -9 9
5 27 22 27 8 0 14 -4 14 -10z m330 -19 c0 -17 -26 -29 -81 -39 -58 -11 -238
-6 -252 7 -4 4 8 6 25 4 67 -6 117 -4 135 5 10 5 26 8 36 7 9 -2 17 0 17 4 0
4 19 8 42 10 23 1 44 4 47 7 8 7 31 4 31 -5z m-1146 -39 c-23 -5 -44 5 -44 22
0 13 4 13 30 -2 21 -12 25 -18 14 -20z m-81 -3 c21 0 21 -1 2 -9 -19 -8 -19
-9 2 -9 12 -1 25 4 28 9 4 6 11 8 16 4 6 -3 5 -12 -3 -22 -10 -12 -10 -14 0
-8 16 10 15 -2 -2 -20 -8 -8 -22 -11 -30 -8 -9 3 -16 2 -16 -4 0 -5 11 -12 25
-14 14 -3 25 -1 25 3 0 5 7 6 15 3 12 -5 14 0 9 27 -4 23 -3 30 4 20 7 -9 12
-10 16 -2 4 6 13 11 19 11 7 -1 3 -8 -9 -18 -11 -10 -19 -23 -16 -30 2 -7 -5
-16 -16 -19 -23 -6 -36 -29 -22 -38 19 -12 10 -25 -16 -25 -14 0 -23 -4 -19
-10 3 -5 -1 -10 -10 -10 -11 0 -15 5 -12 14 3 7 0 19 -6 26 -9 10 -8 12 6 7
19 -7 24 8 5 17 -7 4 -3 4 10 2 30 -6 28 2 -4 14 -14 6 -23 14 -19 19 3 5 0
13 -6 16 -5 4 -8 14 -5 22 3 8 2 12 -3 9 -5 -3 -11 4 -14 15 -4 15 -2 19 10
15 8 -3 24 -6 36 -7z m1224 -30 c-1 -11 -7 -17 -14 -15 -17 7 -12 -14 10 -38
10 -12 20 -31 23 -43 4 -13 10 -23 14 -23 17 0 20 -53 5 -103 -8 -29 -16 -68
-18 -87 -2 -20 -5 -40 -9 -45 -3 -6 -4 -19 -1 -30 2 -11 6 -51 8 -89 3 -38 7
-79 10 -90 5 -17 4 -18 -4 -6 -6 8 -11 22 -11 31 0 9 -11 24 -24 34 -22 16
-34 61 -14 49 4 -3 8 0 8 5 0 6 -9 11 -20 11 -22 0 -27 15 -7 23 9 4 8 8 -3
16 -12 9 -12 11 3 17 9 3 17 11 17 16 0 6 -7 4 -17 -3 -14 -13 -16 -11 -11 12
3 17 0 26 -8 26 -7 0 -11 -4 -8 -9 8 -12 -9 -9 -28 6 -24 18 -24 58 -1 49 11
-4 14 -3 9 5 -4 7 -2 12 3 12 18 0 13 -28 -6 -39 -10 -6 -13 -10 -8 -11 15 0
31 13 38 33 4 9 17 17 30 17 34 0 41 12 15 27 -23 12 -23 12 7 13 26 1 27 3
10 10 l-20 9 20 1 c12 1 15 4 7 7 -7 3 -19 -1 -27 -7 -12 -10 -15 -10 -15 1 0
10 -2 11 -8 2 -10 -15 -32 -19 -65 -10 -23 6 -26 10 -17 27 11 20 41 17 37 -3
-1 -6 6 -12 16 -13 12 -1 13 0 2 3 -8 2 -13 9 -9 14 7 13 72 39 95 39 11 0 19
5 19 10 0 6 -6 9 -12 8 -7 -2 -12 3 -10 10 1 7 -11 15 -28 19 -17 3 -33 10
-36 14 -3 5 -11 9 -17 9 -7 0 -6 -4 3 -10 13 -8 12 -10 -3 -10 -10 0 -15 -4
-12 -10 3 -5 -1 -10 -10 -10 -11 0 -15 5 -11 15 3 8 1 15 -5 15 -6 0 -7 5 -4
10 10 16 -35 48 -75 55 -54 9 -73 25 -30 24 19 0 49 2 65 5 17 3 47 8 69 10
21 3 40 7 43 9 11 12 41 -7 40 -24z m-1092 -69 c3 -5 1 -10 -4 -10 -6 0 -11 5
-11 10 0 6 2 10 4 10 3 0 8 -4 11 -10z m-71 -86 c5 -13 -11 -19 -39 -15 -5 1
1 -7 14 -17 13 -11 21 -24 17 -30 -3 -6 2 -15 11 -21 10 -6 12 -11 6 -11 -23
0 -14 -18 12 -24 14 -4 25 -13 25 -21 0 -9 6 -12 18 -9 14 5 14 4 -2 -7 -15
-9 -20 -9 -28 5 -10 18 -33 21 -43 7 -3 -5 0 -13 6 -17 8 -5 9 -3 4 7 -8 12
-6 12 8 0 22 -18 15 -25 -18 -17 -21 5 -24 10 -16 25 7 12 6 22 -2 31 -9 10
-9 11 1 6 7 -5 12 -1 12 9 0 9 -4 14 -9 11 -5 -4 -8 5 -6 19 2 23 -6 30 -29
26 -5 -1 -5 6 -2 15 4 10 1 21 -6 26 -9 6 -2 8 19 5 26 -3 30 -1 21 10 -8 10
-7 12 5 7 8 -3 18 -12 21 -20z m1011 -14 c3 -6 -1 -13 -9 -16 -9 -3 -13 -10
-10 -16 3 -5 -4 -4 -15 4 -17 10 -18 14 -6 16 8 2 15 8 15 13 0 12 17 12 25
-1z m-795 -34 c0 -2 -6 -9 -14 -15 -11 -9 -16 -9 -22 0 -4 7 -3 9 4 5 6 -3 13
-2 17 4 6 10 15 14 15 6z m-260 -22 c0 -8 -5 -12 -10 -9 -6 4 -8 11 -5 16 9
14 15 11 15 -7z m188 -26 c9 3 13 -2 10 -14 -2 -10 -12 -20 -23 -21 -20 -3
-20 -3 0 6 17 8 13 10 -25 17 -34 5 -40 9 -25 14 11 4 27 4 35 0 8 -4 21 -5
28 -2z m-478 -68 c0 -5 -5 -10 -11 -10 -5 0 -7 5 -4 10 3 6 8 10 11 10 2 0 4
-4 4 -10z m507 -26 c-9 -9 -27 6 -27 22 0 13 2 13 16 -1 9 -9 14 -18 11 -21z
m-80 10 c-3 -3 -12 -4 -19 -1 -8 3 -5 6 6 6 11 1 17 -2 13 -5z m43 2 c0 -2 -7
-7 -16 -10 -8 -3 -12 -2 -9 4 6 10 25 14 25 6z m-80 -17 c0 -6 9 -8 21 -4 16
5 20 3 16 -6 -5 -15 -10 -15 -42 -3 -17 7 -18 6 -7 -8 10 -13 9 -15 -12 -11
-23 5 -23 6 -8 23 19 21 32 25 32 9z m-75 -9 c3 -6 -1 -7 -9 -4 -18 7 -21 14
-7 14 6 0 13 -4 16 -10z m184 -16 c13 -28 9 -40 -8 -29 -6 3 -9 11 -6 16 9 13
-9 11 -24 -3 -10 -11 -10 -8 0 15 15 34 23 34 38 1z m121 -53 c0 -18 -4 -22
-20 -18 -11 3 -20 1 -20 -5 0 -5 9 -12 21 -15 15 -4 17 -8 8 -14 -7 -4 -19 -3
-26 3 -10 8 -13 7 -13 -4 0 -22 11 -29 26 -17 8 7 14 7 19 -1 3 -5 0 -10 -7
-10 -11 0 -10 -2 0 -9 11 -6 9 -9 -7 -14 -11 -3 -19 -2 -18 2 1 3 -7 19 -17
34 -16 24 -17 30 -5 38 11 7 12 12 2 29 -15 23 -17 42 -3 20 9 -13 11 -13 20
0 9 14 11 13 14 -9 0 -5 5 -13 10 -18 9 -8 4 28 -8 72 -4 11 0 7 8 -10 8 -16
15 -41 16 -54z m-175 20 c3 -5 2 -12 -3 -15 -5 -3 -9 1 -9 9 0 17 3 19 12 6z
m100 -20 c3 -5 2 -12 -3 -15 -5 -3 -9 1 -9 9 0 17 3 19 12 6z m109 -109 c2 -4
-4 -8 -14 -8 -10 0 -16 4 -14 8 3 4 9 8 14 8 5 0 11 -4 14 -8z m643 2 c-3 -3
-12 -4 -19 -1 -8 3 -5 6 6 6 11 1 17 -2 13 -5z m-577 -24 c0 -5 -4 -10 -10
-10 -5 0 -10 5 -10 10 0 6 5 10 10 10 6 0 10 -4 10 -10z m667 4 c-3 -3 -12 -4
-19 -1 -8 3 -5 6 6 6 11 1 17 -2 13 -5z m129 -89 c-14 -11 -47 -15 -110 -16
-57 0 -84 -3 -71 -9 19 -7 18 -8 -5 -13 -14 -3 -43 -8 -65 -11 -22 -3 -51 -7
-65 -10 -14 -3 4 4 40 17 36 12 71 26 78 30 7 5 51 10 98 11 46 2 87 6 91 10
3 3 11 6 17 6 6 0 2 -7 -8 -15z m-1149 -107 c-3 -8 -6 -5 -6 6 -1 11 2 17 5
13 3 -3 4 -12 1 -19z m759 4 c-5 -8 -76 -4 -76 4 0 2 18 4 41 4 22 0 38 -4 35
-8z m408 -13 c-10 -12 -18 -23 -16 -25 8 -14 -1 -34 -15 -34 -14 0 -15 -2 -5
-9 15 -9 -28 -31 -68 -34 -17 -1 -28 -12 -39 -39 -16 -37 -59 -68 -106 -74
-11 -2 -31 -5 -45 -7 -14 -3 -31 -5 -37 -6 -19 -2 -16 -21 3 -21 8 0 13 -4 10
-9 -3 -5 1 -11 9 -15 8 -3 12 -12 9 -21 -4 -9 -1 -15 7 -15 8 0 -1 -9 -20 -21
-19 -11 -42 -18 -53 -16 -10 3 -21 0 -25 -5 -4 -7 -1 -8 8 -3 8 5 11 4 6 -1
-13 -14 -30 -11 -45 6 -8 8 -11 10 -8 4 3 -7 0 -16 -7 -22 -16 -13 -76 -12
-84 1 -3 6 -1 7 6 3 12 -8 44 18 34 28 -4 3 1 6 9 6 9 0 19 6 22 13 5 9 7 9
12 -1 5 -10 9 -9 20 5 13 17 14 17 25 0 7 -12 17 -16 31 -11 14 4 18 2 14 -5
-4 -6 -3 -11 3 -11 15 0 21 14 11 29 -4 8 -13 10 -20 6 -8 -5 -11 -4 -6 3 3 6
-2 15 -11 21 -10 5 -17 13 -15 18 1 4 -4 8 -10 8 -7 1 -12 6 -10 13 1 7 -5 12
-13 12 -8 0 -15 5 -15 11 0 5 5 7 10 4 6 -3 10 1 10 10 0 10 -5 13 -12 9 -7
-4 -8 -3 -4 4 5 8 15 8 32 2 30 -12 78 -13 88 -2 4 4 30 7 58 8 40 0 54 5 68
24 33 44 4 75 -101 106 -54 16 -62 23 -48 44 7 13 9 12 9 -1 0 -9 7 -19 15
-22 38 -15 190 -47 218 -46 l32 1 -35 15 c-19 9 -48 16 -65 15 -22 -1 -25 0
-12 6 10 4 18 12 17 17 -1 5 3 11 9 13 6 2 11 -1 11 -8 0 -6 5 -8 12 -4 6 4 8
3 4 -4 -3 -6 -2 -13 4 -17 5 -3 10 0 10 8 0 10 9 13 28 10 23 -3 24 -2 7 6
-11 5 -15 10 -8 10 6 1 19 4 27 7 12 5 15 2 10 -11 -5 -11 2 -8 19 9 31 31 48
35 21 5z m-345 -5 c2 -2 2 -7 -2 -10 -3 -3 -16 2 -29 11 l-23 17 25 -7 c14 -4
27 -9 29 -11z m-1189 -64 c0 -5 -8 -10 -17 -10 -15 0 -16 2 -3 10 19 12 20 12
20 0z m388 3 c-10 -2 -28 -2 -40 0 -13 2 -5 4 17 4 22 1 32 -1 23 -4z m657
-63 c3 -5 2 -10 -4 -10 -5 0 -13 5 -16 10 -3 6 -2 10 4 10 5 0 13 -4 16 -10z
m-515 -80 c0 -5 -4 -10 -10 -10 -5 0 -10 5 -10 10 0 6 5 10 10 10 6 0 10 -4
10 -10z m534 0 c-5 -5 -25 -12 -44 -15 -35 -5 -35 -5 5 9 50 18 51 18 39 6z
m-537 -23 c8 0 8 -5 0 -19 -7 -10 -13 -14 -15 -10 -1 5 -14 7 -28 4 -14 -2
-23 -10 -21 -16 6 -14 -23 -50 -43 -54 -11 -3 -11 0 -1 12 7 8 11 21 8 28 -3
8 -6 6 -6 -5 -1 -14 -6 -17 -23 -12 -30 9 -47 26 -19 18 12 -3 21 -1 21 6 0 6
11 11 25 11 14 0 25 4 25 9 0 5 12 12 27 16 22 5 24 8 12 17 -11 8 -9 8 6 3
11 -4 25 -8 32 -8z m-137 -40 c0 -5 -7 -6 -16 -3 -9 3 -20 6 -24 6 -5 0 -14 9
-20 20 -11 20 -10 20 25 3 19 -9 35 -21 35 -26z m96 -33 c-9 -8 -16 -21 -16
-27 0 -8 -4 -7 -12 1 -10 10 -7 17 12 36 27 25 42 16 16 -10z m514 -49 c0 -2
-15 -14 -34 -29 -28 -21 -36 -23 -46 -12 -9 12 -8 13 7 10 10 -3 24 3 32 14
10 15 41 27 41 17z m-88 -53 c11 -14 11 -15 -5 -9 -10 4 -25 7 -33 7 -21 0
-17 16 5 17 11 1 26 -6 33 -15z m291 -30 c16 -17 14 -19 -28 -40 -48 -23 -178
-33 -196 -15 -7 7 7 9 40 5 37 -3 68 2 115 18 57 21 63 25 48 36 -9 8 -12 14
-6 14 6 0 18 -8 27 -18z m-38 -1 c6 -11 -33 -26 -42 -17 -4 3 1 6 11 6 9 0 14
5 11 10 -3 6 -2 10 4 10 5 0 12 -4 16 -9z m-270 -41 c-3 -5 -1 -10 5 -10 7 0
5 -7 -5 -16 -13 -13 -13 -19 -3 -33 12 -14 11 -15 -4 -2 -10 7 -15 17 -12 22
3 5 -2 6 -10 3 -9 -3 -16 -1 -16 5 0 6 6 11 14 11 8 0 16 7 20 15 3 8 8 15 11
15 4 0 3 -4 0 -10z m65 -4 c0 -2 -7 -9 -15 -16 -13 -11 -14 -10 -9 4 5 14 24
23 24 12z m12 -44 c3 8 7 6 11 -6 4 -9 3 -15 -2 -11 -5 3 -13 1 -16 -5 -5 -8
-11 -7 -21 1 -7 6 -11 15 -8 21 3 5 11 5 19 -2 10 -8 14 -8 17 2z m-165 -23
c3 -10 9 -19 13 -19 4 0 10 -7 14 -15 7 -18 -13 -9 -57 27 l-28 23 27 2 c18 1
28 -5 31 -18z m118 1 c3 -5 1 -10 -4 -10 -6 0 -11 5 -11 10 0 6 2 10 4 10 3 0
8 -4 11 -10z m314 -39 c-11 -23 -29 -45 -38 -50 -9 -5 -14 -13 -12 -17 2 -4
-15 -21 -38 -38 -35 -25 -48 -29 -97 -27 -33 1 -74 11 -98 23 -50 25 -106 84
-106 112 0 20 1 19 24 -4 13 -14 23 -29 22 -35 0 -5 5 -9 11 -8 7 2 12 -2 10
-8 -1 -6 9 -18 23 -27 24 -16 25 -16 10 4 -12 15 -10 15 6 -2 34 -35 104 -36
104 -1 0 15 3 18 9 9 6 -10 11 -9 22 4 8 10 9 15 2 11 -6 -4 -14 -3 -18 3 -8
13 11 13 35 0 15 -8 18 -7 14 3 -3 8 3 20 12 28 11 9 15 9 10 2 -5 -9 -2 -11
8 -7 9 3 16 9 16 13 0 4 18 16 40 27 22 10 40 23 40 28 0 5 2 7 5 4 3 -3 -4
-24 -16 -47z m-448 -28 c13 -16 12 -17 -3 -4 -17 13 -22 21 -14 21 2 0 10 -8
17 -17z m-93 -32 c-6 -11 -24 -21 -40 -23 -22 -4 -25 -2 -16 9 6 8 17 12 24 9
7 -3 16 0 20 6 5 7 2 8 -6 3 -9 -5 -11 -4 -6 3 4 7 14 12 22 12 11 0 12 -4 2
-19z m86 -30 c-2 -3 -12 3 -22 13 -16 17 -16 18 5 5 12 -7 20 -15 17 -18z
m254 2 c-10 -2 -26 -2 -35 0 -10 3 -2 5 17 5 19 0 27 -2 18 -5z m-144 -15 c-6
-10 -52 -9 -78 1 -13 5 -2 7 31 7 28 0 49 -4 47 -8z m-299 -18 c3 -5 1 -10 -4
-10 -6 0 -11 5 -11 10 0 6 2 10 4 10 3 0 8 -4 11 -10z m68 -5 c-3 -9 -8 -14
-10 -11 -3 3 -2 9 2 15 9 16 15 13 8 -4z m29 -27 c-7 -7 -12 -8 -12 -2 0 14
12 26 19 19 2 -3 -1 -11 -7 -17z m53 -31 c0 -7 9 -11 20 -9 16 2 17 1 5 -7
-17 -11 -32 -1 -36 25 -1 9 1 13 4 9 4 -4 7 -12 7 -18z m-35 -27 c14 -11 21
-20 15 -20 -5 0 -21 9 -35 20 -14 11 -20 20 -15 20 6 0 21 -9 35 -20z m81 -17
c13 -16 12 -17 -3 -4 -10 7 -18 15 -18 17 0 8 8 3 21 -13z"/>
<path d="M3285 2840 c4 -6 11 -8 16 -5 14 9 11 15 -7 15 -8 0 -12 -5 -9 -10z"/>
<path d="M3051 2354 c0 -11 3 -14 6 -6 3 7 2 16 -1 19 -3 4 -6 -2 -5 -13z"/>
<path d="M2440 2195 c0 -8 2 -15 4 -15 2 0 6 7 10 15 3 8 1 15 -4 15 -6 0 -10
-7 -10 -15z"/>
<path d="M2415 2170 c-3 -5 -1 -10 4 -10 6 0 11 5 11 10 0 6 -2 10 -4 10 -3 0
-8 -4 -11 -10z"/>
<path d="M2500 2080 c0 -5 5 -10 11 -10 5 0 7 5 4 10 -3 6 -8 10 -11 10 -2 0
-4 -4 -4 -10z"/>
<path d="M2460 1976 c0 -2 7 -7 16 -10 8 -3 12 -2 9 4 -6 10 -25 14 -25 6z"/>
<path d="M2525 1960 c3 -5 8 -10 11 -10 2 0 4 5 4 10 0 6 -5 10 -11 10 -5 0
-7 -4 -4 -10z"/>
<path d="M2510 1780 c0 -6 7 -10 15 -10 8 0 15 2 15 4 0 2 -7 6 -15 10 -8 3
-15 1 -15 -4z"/>
<path d="M2705 1640 c3 -5 8 -10 11 -10 2 0 4 5 4 10 0 6 -5 10 -11 10 -5 0
-7 -4 -4 -10z"/>
<path d="M2517 1659 c7 -7 15 -10 18 -7 3 3 -2 9 -12 12 -14 6 -15 5 -6 -5z"/>
<path d="M3558 1653 c7 -3 16 -2 19 1 4 3 -2 6 -13 5 -11 0 -14 -3 -6 -6z"/>
<path d="M3738 1503 c6 -2 18 -2 25 0 6 3 1 5 -13 5 -14 0 -19 -2 -12 -5z"/>
<path d="M3400 669 c0 -5 5 -7 10 -4 6 3 10 8 10 11 0 2 -4 4 -10 4 -5 0 -10
-5 -10 -11z"/>
<path d="M3308 543 c7 -3 16 -2 19 1 4 3 -2 6 -13 5 -11 0 -14 -3 -6 -6z"/>
<path d="M2323 3363 c-12 -2 -27 -11 -35 -20 -11 -14 -10 -15 10 -9 12 3 31 9
42 12 18 5 30 26 13 23 -5 -1 -18 -4 -30 -6z"/>
<path d="M2385 3300 c-3 -5 -1 -10 4 -10 6 0 11 5 11 10 0 6 -2 10 -4 10 -3 0
-8 -4 -11 -10z"/>
<path d="M2123 2632 c0 -12 5 -22 9 -22 11 0 10 12 -2 30 -7 12 -9 10 -7 -8z"/>
<path d="M1910 2485 c0 -49 16 -53 44 -10 20 30 11 55 -20 55 -22 0 -24 -4
-24 -45z"/>
<path d="M1980 2519 c0 -5 5 -7 10 -4 6 3 10 8 10 11 0 2 -4 4 -10 4 -5 0 -10
-5 -10 -11z"/>
<path d="M1984 2468 l-29 -33 31 28 c37 33 49 34 70 2 18 -28 31 -32 31 -10 0
8 -3 12 -7 10 -3 -2 -14 5 -23 16 -23 27 -39 24 -73 -13z"/>
<path d="M2007 2443 c-4 -3 -7 -30 -7 -60 0 -40 -4 -53 -15 -53 -10 0 -15 11
-15 35 0 19 -4 35 -9 35 -5 0 -11 7 -13 16 -2 11 -14 4 -43 -26 -22 -23 -32
-38 -23 -35 9 4 24 18 33 31 9 14 20 22 25 19 12 -8 -6 -56 -27 -72 -9 -7 -12
-13 -6 -13 14 0 40 31 46 55 3 12 5 5 6 -16 1 -24 7 -39 17 -43 29 -11 43 12
38 61 -4 38 -2 44 11 39 13 -4 14 -2 5 14 -12 22 -14 23 -23 13z"/>
<path d="M1855 2330 c-3 -5 1 -10 10 -10 9 0 13 5 10 10 -3 6 -8 10 -10 10 -2
0 -7 -4 -10 -10z"/>
<path d="M2021 2263 c-1 -17 16 -25 25 -12 4 7 3 9 -4 5 -5 -3 -13 0 -15 6 -4
9 -6 10 -6 1z"/>
<path d="M1962 2195 c0 -33 2 -42 6 -27 6 20 10 16 25 -28 10 -29 20 -50 23
-48 2 2 -10 38 -26 79 l-29 74 1 -50z"/>
<path d="M2072 2214 c-2 -32 30 -74 42 -56 3 5 -3 12 -13 15 -13 3 -21 16 -24
38 l-4 34 -1 -31z"/>
<path d="M2060 2134 c-17 -9 -20 -14 -9 -14 9 0 22 7 29 15 15 18 13 18 -20
-1z"/>
<path d="M3080 90 c0 -7 46 -7 54 0 2 3 -9 6 -25 6 -16 1 -29 -2 -29 -6z"/>
<path d="M3175 70 c3 -5 12 -7 20 -3 21 7 19 13 -6 13 -11 0 -18 -4 -14 -10z"/>
</g>
</svg>
